<svg width="211" height="65" viewBox="0 0 211 65" fill="none" xmlns="http://www.w3.org/2000/svg">
<path fill-rule="evenodd" clip-rule="evenodd" d="M107.69 49.2801C105.8 50.5201 98.77 52.1501 95.99 52.4101C94.03 52.5901 90.81 52.4901 88.97 52.0101C87.03 51.5001 85.77 50.3401 85.51 48.1801C85.19 45.5801 86.7 44.7101 88.88 44.2101C93.79 43.0901 104.69 44.5701 107.7 46.5701L107.69 49.2901V49.2801ZM181.23 28.5301C188.79 27.7001 195.22 32.5201 196.04 38.9101C197.02 46.5301 191.02 51.6601 184.33 52.3901C176.72 53.2201 170.28 48.3501 169.48 41.8801C168.54 34.3101 174.55 29.2701 181.24 28.5301H181.23ZM14.78 16.4201L45.05 16.4101L45.02 2.97011H0.760004C0.550004 5.08011 0.730004 8.17011 0.730004 10.3801V54.9701C0.730004 56.8201 0.410004 60.4701 1.21 61.8601C2.35 63.8401 4.1 63.6701 6.88 63.6701H29.05C36.64 63.6701 43.37 61.9401 49.77 58.4001C50.44 58.0301 51.48 57.2901 52.12 57.0401C52.5 59.5201 53.88 61.3801 55.39 62.4501C57.15 63.7001 59.56 64.2101 62.19 64.2501C65.9 64.3201 69.45 63.4101 72.46 61.5901C73.01 61.2601 74.75 60.0101 75.1 59.9101C75.53 60.6801 77.07 61.8801 78.1 62.4601C82.12 64.7201 87.47 65.1001 92.12 64.7301C100.58 64.0501 107.14 60.0301 109.08 59.7101C109.79 60.5801 109.83 61.2001 111.17 62.2001C114.1 64.4101 118.45 64.6101 122.02 63.9001C126.98 62.9101 130.2 60.6701 134.02 58.1501C134.37 58.5101 134.98 60.0601 136.3 61.2201C139.52 64.0701 144.22 64.7201 148.53 63.9201C154.34 62.8401 158.62 59.7001 162.73 57.1401C163.17 57.3401 163.24 57.5101 163.61 57.8501C163.85 58.0701 164.18 58.3401 164.46 58.5501C168.74 61.8801 173.78 64.0001 179.41 64.6401C192.06 66.0901 205.72 58.9901 209.3 46.5501C211.37 39.3501 209.44 32.2801 205.97 27.4501C194.29 11.2401 167.75 12.8501 158.31 29.4601C156.83 32.0701 155.75 35.1801 155.48 38.7501C155.34 40.6001 155.43 42.5201 155.75 44.3201C155.9 45.1501 156.09 45.9701 156.32 46.7501C156.54 47.5101 156.88 48.2501 157.08 48.9801L146.56 51.5601C146.2 46.0901 146.4 35.1501 146.4 29.1101H154.04L158.22 17.4901L146.4 17.4301L146.37 2.96011L132.4 2.98011L132.39 17.4901H127.06L127.08 29.1001H132.4L132.38 48.8601C131.98 49.1201 122.85 51.3601 121.72 51.5701L121.7 17.4801L82.53 17.5101L82.54 29.0901L107.72 29.1401L107.7 36.3801C107.34 36.2601 106.89 35.9801 106.5 35.8101C103.4 34.5001 99.91 33.7101 96.56 33.1301C92.04 32.3501 87.92 32.0301 83.37 32.9801C77.14 34.2701 73.04 37.4401 71.85 43.2001C71.14 46.6301 71.76 48.1201 71.56 50.1201L65.67 51.5501L65.61 0.110107L51.67 0.120107V44.8801C51.47 45.4201 49.05 46.5601 48.35 46.8701C44.26 48.7001 40.23 49.5501 35.6 49.9601C31.62 50.3101 19.04 50.3301 14.75 50.2101L14.76 38.9801L40.75 38.9301L40.74 27.3701L14.75 27.3601L14.8 16.4101L14.78 16.4201Z" fill="white"/>
</svg>
