<svg width="22" height="15" viewBox="0 0 22 15" fill="none" xmlns="http://www.w3.org/2000/svg">
<path d="M11.0708 0H11.1932C12.3235 0.00400391 18.0508 0.0440433 19.595 0.447104C20.0618 0.570116 20.4872 0.809888 20.8286 1.14246C21.1701 1.47503 21.4156 1.88876 21.5407 2.34229C21.6796 2.84945 21.7772 3.52078 21.8432 4.21345L21.857 4.35226L21.8872 4.69926L21.8982 4.83806C21.9876 6.05792 21.9986 7.20037 22 7.44995V7.55005C21.9986 7.80897 21.9862 9.02883 21.8872 10.2994L21.8762 10.4395L21.8639 10.5783C21.7951 11.3418 21.6934 12.0998 21.5407 12.6577C21.416 13.1114 21.1706 13.5253 20.8291 13.858C20.4876 14.1906 20.062 14.4303 19.595 14.5529C17.9999 14.9693 11.9371 14.9987 11.0969 15H10.9017C10.4768 15 8.71942 14.992 6.8768 14.9306L6.64304 14.9226L6.52341 14.9173L6.28827 14.9079L6.05313 14.8986C4.52678 14.8332 3.07332 14.7277 2.40365 14.5516C1.93679 14.429 1.51131 14.1896 1.16982 13.8572C0.828329 13.5248 0.582826 13.1112 0.457904 12.6577C0.305269 12.1012 0.203513 11.3418 0.134758 10.5783L0.123758 10.4382L0.112757 10.2994C0.0448933 9.39505 0.00728777 8.4888 0 7.58208L0 7.41925C0.00275017 7.13231 0.0137509 6.14067 0.0880055 5.04627L0.0976311 4.9088L0.101756 4.8394L0.112757 4.7006L0.143009 4.35359L0.15676 4.21479C0.222764 3.52211 0.320395 2.84945 0.459279 2.34363C0.58399 1.88991 0.8294 1.47599 1.1709 1.14336C1.51241 0.810731 1.938 0.571081 2.40503 0.448439C3.07469 0.274936 4.52816 0.168165 6.0545 0.101433L6.28827 0.0920902L6.52478 0.0840823L6.64304 0.0800784L6.87818 0.070736C8.18685 0.0294171 9.49607 0.00628093 10.8054 0.0013347H11.0708V0ZM8.80055 4.28419V10.7145L14.5168 7.50067L8.80055 4.28419Z" fill="white"/>
</svg>
