<svg width="61" height="12" viewBox="0 0 61 12" fill="none" xmlns="http://www.w3.org/2000/svg">
<mask id="path-1-inside-1_210_74" fill="white">
<path d="M3.11319 0.890077H4.14767C6.04096 0.890077 6.9632 1.74544 6.9632 3.56895C6.9632 5.37837 5.99216 6.56742 3.85001 6.56742V6.8682C3.91833 6.8823 4.06472 6.8964 4.27942 6.8964C6.68507 6.8964 8.65643 5.63216 8.65643 3.40916C8.65643 1.44465 7.26086 0.3825 4.44532 0.3825H0V0.796081C1.41509 0.969973 1.46388 0.904176 1.46388 2.07912V10.1017C1.46388 11.2719 1.41509 11.2108 0 11.3847V11.7983H4.57707V11.3847C3.16199 11.2108 3.11319 11.2719 3.11319 10.1017V0.890077Z"/>
<path d="M49.9916 0.3825V0.796081C50.7284 0.796081 51.0749 1.17676 51.5677 1.90523L54.1685 5.78725L50.9919 10.1346C50.4015 10.957 49.9721 11.3847 49.1523 11.3847V11.7983H52.49V11.3847C52.0654 11.3847 51.719 11.1779 51.719 10.769C51.719 10.5293 51.8312 10.2426 52.0947 9.88076L54.6175 6.40762L57.2671 10.0218C57.5111 10.3695 57.6136 10.6421 57.6136 10.8301C57.6136 11.2719 57.1354 11.3847 56.6913 11.3847V11.7983H61V11.3847C60.0631 11.3847 59.8484 11.1168 58.9945 9.92776L55.652 5.31257L58.4528 1.61854C58.8139 1.14386 59.4532 0.796081 60.0143 0.796081V0.3825H56.8035V0.796081C57.1988 0.796081 57.594 0.951174 57.594 1.31776C57.594 1.47755 57.5306 1.66554 57.3501 1.90523L55.1591 4.758L53.3829 2.06032C53.1829 1.77834 53.0999 1.52455 53.0999 1.35066C53.0999 0.937075 53.5147 0.796081 53.9587 0.796081V0.3825H49.9916Z"/>
<path d="M38.6953 7.38995L40.7204 2.07919H40.7496L42.5453 7.38995H38.6953ZM40.7692 0.175781C39.3541 3.78992 37.3778 9.11947 36.6361 10.5435C36.3726 11.084 35.8798 11.3707 35.4162 11.3707V11.7983H38.5099V11.3707C37.9048 11.3707 37.5925 11.0229 37.5925 10.5623C37.5925 10.4965 37.6072 10.3367 37.656 10.1957L38.4465 8.01032H42.76L43.4822 10.1158C43.5652 10.3555 43.614 10.5294 43.614 10.7033C43.614 11.0981 43.3358 11.3707 42.5941 11.3707V11.7983H46.5466V11.3707C45.8195 11.3707 45.5414 10.8443 45.1608 9.92783C44.585 8.485 42.8576 3.45623 41.706 0.175781H40.7692Z"/>
<path d="M24.2029 0.3825V0.796081C25.6179 0.969973 25.6667 0.904176 25.6667 2.07912V10.1017C25.6667 11.2719 25.6179 11.2108 24.2029 11.3847V11.7983H32.5324L33.0447 8.86561H32.6153C31.8443 10.6092 31.9419 11.2907 29.4875 11.2907C27.9748 11.2907 27.3161 11.1638 27.3161 10.0218V2.07912C27.3161 0.904176 27.3649 0.969973 28.7799 0.796081V0.3825H24.2029Z"/>
<path d="M13.6141 7.38995L15.6392 2.07919H15.6733L17.469 7.38995H13.6141ZM15.6879 0.175781C14.2729 3.78992 12.3015 9.11947 11.5598 10.5435C11.2963 11.084 10.8035 11.3707 10.3399 11.3707V11.7983H13.4336V11.3707C12.8236 11.3707 12.5113 11.0229 12.5113 10.5623C12.5113 10.4965 12.5308 10.3367 12.5796 10.1957L13.3701 8.01032H17.6837L18.4059 10.1158C18.4888 10.3555 18.5376 10.5294 18.5376 10.7033C18.5376 11.0981 18.2595 11.3707 17.5178 11.3707V11.7983H21.4703V11.3707C20.7432 11.3707 20.4651 10.8443 20.0845 9.92783C19.5087 8.485 17.7813 3.45623 16.6297 0.175781H15.6879Z"/>
</mask>
<path d="M3.11319 0.890077H4.14767C6.04096 0.890077 6.9632 1.74544 6.9632 3.56895C6.9632 5.37837 5.99216 6.56742 3.85001 6.56742V6.8682C3.91833 6.8823 4.06472 6.8964 4.27942 6.8964C6.68507 6.8964 8.65643 5.63216 8.65643 3.40916C8.65643 1.44465 7.26086 0.3825 4.44532 0.3825H0V0.796081C1.41509 0.969973 1.46388 0.904176 1.46388 2.07912V10.1017C1.46388 11.2719 1.41509 11.2108 0 11.3847V11.7983H4.57707V11.3847C3.16199 11.2108 3.11319 11.2719 3.11319 10.1017V0.890077Z" fill="white"/>
<path d="M49.9916 0.3825V0.796081C50.7284 0.796081 51.0749 1.17676 51.5677 1.90523L54.1685 5.78725L50.9919 10.1346C50.4015 10.957 49.9721 11.3847 49.1523 11.3847V11.7983H52.49V11.3847C52.0654 11.3847 51.719 11.1779 51.719 10.769C51.719 10.5293 51.8312 10.2426 52.0947 9.88076L54.6175 6.40762L57.2671 10.0218C57.5111 10.3695 57.6136 10.6421 57.6136 10.8301C57.6136 11.2719 57.1354 11.3847 56.6913 11.3847V11.7983H61V11.3847C60.0631 11.3847 59.8484 11.1168 58.9945 9.92776L55.652 5.31257L58.4528 1.61854C58.8139 1.14386 59.4532 0.796081 60.0143 0.796081V0.3825H56.8035V0.796081C57.1988 0.796081 57.594 0.951174 57.594 1.31776C57.594 1.47755 57.5306 1.66554 57.3501 1.90523L55.1591 4.758L53.3829 2.06032C53.1829 1.77834 53.0999 1.52455 53.0999 1.35066C53.0999 0.937075 53.5147 0.796081 53.9587 0.796081V0.3825H49.9916Z" fill="white"/>
<path d="M38.6953 7.38995L40.7204 2.07919H40.7496L42.5453 7.38995H38.6953ZM40.7692 0.175781C39.3541 3.78992 37.3778 9.11947 36.6361 10.5435C36.3726 11.084 35.8798 11.3707 35.4162 11.3707V11.7983H38.5099V11.3707C37.9048 11.3707 37.5925 11.0229 37.5925 10.5623C37.5925 10.4965 37.6072 10.3367 37.656 10.1957L38.4465 8.01032H42.76L43.4822 10.1158C43.5652 10.3555 43.614 10.5294 43.614 10.7033C43.614 11.0981 43.3358 11.3707 42.5941 11.3707V11.7983H46.5466V11.3707C45.8195 11.3707 45.5414 10.8443 45.1608 9.92783C44.585 8.485 42.8576 3.45623 41.706 0.175781H40.7692Z" fill="white"/>
<path d="M24.2029 0.3825V0.796081C25.6179 0.969973 25.6667 0.904176 25.6667 2.07912V10.1017C25.6667 11.2719 25.6179 11.2108 24.2029 11.3847V11.7983H32.5324L33.0447 8.86561H32.6153C31.8443 10.6092 31.9419 11.2907 29.4875 11.2907C27.9748 11.2907 27.3161 11.1638 27.3161 10.0218V2.07912C27.3161 0.904176 27.3649 0.969973 28.7799 0.796081V0.3825H24.2029Z" fill="white"/>
<path d="M13.6141 7.38995L15.6392 2.07919H15.6733L17.469 7.38995H13.6141ZM15.6879 0.175781C14.2729 3.78992 12.3015 9.11947 11.5598 10.5435C11.2963 11.084 10.8035 11.3707 10.3399 11.3707V11.7983H13.4336V11.3707C12.8236 11.3707 12.5113 11.0229 12.5113 10.5623C12.5113 10.4965 12.5308 10.3367 12.5796 10.1957L13.3701 8.01032H17.6837L18.4059 10.1158C18.4888 10.3555 18.5376 10.5294 18.5376 10.7033C18.5376 11.0981 18.2595 11.3707 17.5178 11.3707V11.7983H21.4703V11.3707C20.7432 11.3707 20.4651 10.8443 20.0845 9.92783C19.5087 8.485 17.7813 3.45623 16.6297 0.175781H15.6879Z" fill="white"/>
<path d="M3.11319 0.890077V-0.109923H2.11319V0.890077H3.11319ZM3.85001 6.56742V5.56742H2.85001V6.56742H3.85001ZM3.85001 6.8682H2.85001V7.68289L3.64788 7.84756L3.85001 6.8682ZM0 0.3825V-0.6175H-1V0.3825H0ZM0 0.796081H-1V1.68072L-0.121967 1.78862L0 0.796081ZM0 11.3847L-0.121967 10.3922L-1 10.5001V11.3847H0ZM0 11.7983H-1V12.7983H0V11.7983ZM4.57707 11.7983V12.7983H5.57707V11.7983H4.57707ZM4.57707 11.3847H5.57707V10.5001L4.69904 10.3922L4.57707 11.3847ZM49.9916 0.3825V-0.6175H48.9916V0.3825H49.9916ZM49.9916 0.796081H48.9916V1.79608H49.9916V0.796081ZM51.5677 1.90523L52.3985 1.34863L52.396 1.34488L51.5677 1.90523ZM54.1685 5.78725L54.976 6.37724L55.3889 5.81212L54.9993 5.23065L54.1685 5.78725ZM50.9919 10.1346L50.1845 9.54455L50.1796 9.55138L50.9919 10.1346ZM49.1523 11.3847V10.3847H48.1523V11.3847H49.1523ZM49.1523 11.7983H48.1523V12.7983H49.1523V11.7983ZM52.49 11.7983V12.7983H53.49V11.7983H52.49ZM52.49 11.3847H53.49V10.3847H52.49V11.3847ZM52.0947 9.88076L52.9031 10.4694L52.9038 10.4685L52.0947 9.88076ZM54.6175 6.40762L55.424 5.81637L54.6137 4.7112L53.8084 5.81993L54.6175 6.40762ZM57.2671 10.0218L58.0857 9.44746L58.0798 9.43891L58.0736 9.4305L57.2671 10.0218ZM56.6913 11.3847V10.3847H55.6913V11.3847H56.6913ZM56.6913 11.7983H55.6913V12.7983H56.6913V11.7983ZM61 11.7983V12.7983H62V11.7983H61ZM61 11.3847H62V10.3847H61V11.3847ZM58.9945 9.92776L59.8067 9.34443L59.8044 9.34119L58.9945 9.92776ZM55.652 5.31257L54.8551 4.70839L54.4073 5.29893L54.8421 5.89914L55.652 5.31257ZM58.4528 1.61854L57.657 1.0131L57.656 1.01436L58.4528 1.61854ZM60.0143 0.796081V1.79608H61.0143V0.796081H60.0143ZM60.0143 0.3825H61.0143V-0.6175H60.0143V0.3825ZM56.8035 0.3825V-0.6175H55.8035V0.3825H56.8035ZM56.8035 0.796081H55.8035V1.79608H56.8035V0.796081ZM57.3501 1.90523L58.1432 2.51436L58.1488 2.50689L57.3501 1.90523ZM55.1591 4.758L54.3239 5.30792L55.0965 6.48132L55.9522 5.3671L55.1591 4.758ZM53.3829 2.06032L54.2181 1.51041L54.2086 1.49587L54.1985 1.48168L53.3829 2.06032ZM53.9587 0.796081V1.79608H54.9587V0.796081H53.9587ZM53.9587 0.3825H54.9587V-0.6175H53.9587V0.3825ZM38.6953 7.38995L37.7609 7.03366L37.2438 8.38995H38.6953V7.38995ZM40.7204 2.07919V1.07919H40.0314L39.786 1.72291L40.7204 2.07919ZM40.7496 2.07919L41.6969 1.75888L41.4671 1.07919H40.7496V2.07919ZM42.5453 7.38995V8.38995H43.9391L43.4926 7.06964L42.5453 7.38995ZM40.7692 0.175781V-0.824219H40.0868L39.838 -0.18881L40.7692 0.175781ZM36.6361 10.5435L35.7492 10.0816L35.7431 10.0933L35.7373 10.1053L36.6361 10.5435ZM35.4162 11.3707V10.3707H34.4162V11.3707H35.4162ZM35.4162 11.7983H34.4162V12.7983H35.4162V11.7983ZM38.5099 11.7983V12.7983H39.5099V11.7983H38.5099ZM38.5099 11.3707H39.5099V10.3707H38.5099V11.3707ZM37.656 10.1957L36.7155 9.85554L36.711 9.86867L37.656 10.1957ZM38.4465 8.01032V7.01032H37.7448L37.5061 7.67017L38.4465 8.01032ZM42.76 8.01032L43.7059 7.68588L43.4742 7.01032H42.76V8.01032ZM43.4822 10.1158L42.5363 10.4403L42.5372 10.4429L43.4822 10.1158ZM42.5941 11.3707V10.3707H41.5941V11.3707H42.5941ZM42.5941 11.7983H41.5941V12.7983H42.5941V11.7983ZM46.5466 11.7983V12.7983H47.5466V11.7983H46.5466ZM46.5466 11.3707H47.5466V10.3707H46.5466V11.3707ZM45.1608 9.92783L44.2319 10.2985L44.2373 10.3114L45.1608 9.92783ZM41.706 0.175781L42.6496 -0.155448L42.4148 -0.824219H41.706V0.175781ZM24.2029 0.3825V-0.6175H23.2029V0.3825H24.2029ZM24.2029 0.796081H23.2029V1.68072L24.0809 1.78862L24.2029 0.796081ZM24.2029 11.3847L24.0809 10.3922L23.2029 10.5001V11.3847H24.2029ZM24.2029 11.7983H23.2029V12.7983H24.2029V11.7983ZM32.5324 11.7983V12.7983H33.3728L33.5174 11.9704L32.5324 11.7983ZM33.0447 8.86561L34.0298 9.03771L34.2346 7.86561H33.0447V8.86561ZM32.6153 8.86561V7.86561H31.9641L31.7007 8.46121L32.6153 8.86561ZM28.7799 0.796081L28.9019 1.78862L29.7799 1.68072V0.796081H28.7799ZM28.7799 0.3825H29.7799V-0.6175H28.7799V0.3825ZM13.6141 7.38995L12.6797 7.03366L12.1626 8.38995H13.6141V7.38995ZM15.6392 2.07919V1.07919H14.9502L14.7048 1.72291L15.6392 2.07919ZM15.6733 2.07919L16.6206 1.75888L16.3908 1.07919H15.6733V2.07919ZM17.469 7.38995V8.38995H18.8627L18.4163 7.06964L17.469 7.38995ZM15.6879 0.175781V-0.824219H15.0056L14.7568 -0.18881L15.6879 0.175781ZM11.5598 10.5435L10.6729 10.0816L10.6668 10.0933L10.6609 10.1053L11.5598 10.5435ZM10.3399 11.3707V10.3707H9.33989V11.3707H10.3399ZM10.3399 11.7983H9.33989V12.7983H10.3399V11.7983ZM13.4336 11.7983V12.7983H14.4336V11.7983H13.4336ZM13.4336 11.3707H14.4336V10.3707H13.4336V11.3707ZM12.5796 10.1957L11.6392 9.85554L11.6346 9.86867L12.5796 10.1957ZM13.3701 8.01032V7.01032H12.6684L12.4298 7.67017L13.3701 8.01032ZM17.6837 8.01032L18.6296 7.68588L18.3979 7.01032H17.6837V8.01032ZM18.4059 10.1158L17.46 10.4403L17.4609 10.4429L18.4059 10.1158ZM17.5178 11.3707V10.3707H16.5178V11.3707H17.5178ZM17.5178 11.7983H16.5178V12.7983H17.5178V11.7983ZM21.4703 11.7983V12.7983H22.4703V11.7983H21.4703ZM21.4703 11.3707H22.4703V10.3707H21.4703V11.3707ZM20.0845 9.92783L19.1556 10.2985L19.161 10.3114L20.0845 9.92783ZM16.6297 0.175781L17.5733 -0.155448L17.3385 -0.824219H16.6297V0.175781ZM3.11319 1.89008H4.14767V-0.109923H3.11319V1.89008ZM4.14767 1.89008C4.96465 1.89008 5.3716 2.0768 5.57837 2.27231C5.77392 2.45721 5.9632 2.81434 5.9632 3.56895H7.9632C7.9632 2.50005 7.69137 1.51775 6.95247 0.819082C6.22479 0.131032 5.22398 -0.109923 4.14767 -0.109923V1.89008ZM5.9632 3.56895C5.9632 4.30297 5.76787 4.76773 5.49403 5.04849C5.22512 5.3242 4.73908 5.56742 3.85001 5.56742V7.56742C5.10309 7.56742 6.17365 7.21611 6.92579 6.44494C7.67302 5.67882 7.9632 4.64436 7.9632 3.56895H5.9632ZM2.85001 6.56742V6.8682H4.85001V6.56742H2.85001ZM3.64788 7.84756C3.81482 7.88202 4.04023 7.8964 4.27942 7.8964V5.8964C4.19321 5.8964 4.12759 5.89355 4.08308 5.89028C4.06089 5.88865 4.04625 5.88708 4.03863 5.88614C4.0294 5.88499 4.03532 5.88537 4.05214 5.88884L3.64788 7.84756ZM4.27942 7.8964C5.64456 7.8964 6.96419 7.53924 7.96925 6.787C9.00043 6.0152 9.65643 4.85361 9.65643 3.40916H7.65643C7.65643 4.18771 7.32674 4.76974 6.77083 5.18581C6.1888 5.62144 5.31993 5.8964 4.27942 5.8964V7.8964ZM9.65643 3.40916C9.65643 2.16149 9.19567 1.08026 8.19593 0.351174C7.25094 -0.337987 5.9518 -0.6175 4.44532 -0.6175V1.3825C5.75438 1.3825 6.5608 1.63406 7.01747 1.9671C7.41941 2.26023 7.65643 2.69232 7.65643 3.40916H9.65643ZM4.44532 -0.6175H0V1.3825H4.44532V-0.6175ZM-1 0.3825V0.796081H1V0.3825H-1ZM-0.121967 1.78862C0.262566 1.83587 0.481497 1.8588 0.648565 1.88887C0.684591 1.89536 0.710615 1.90094 0.729067 1.90545C0.747599 1.90998 0.754668 1.91251 0.753475 1.91209C0.75198 1.91157 0.700862 1.89374 0.635677 1.84129C0.563529 1.78323 0.509508 1.71139 0.475915 1.64287C0.447087 1.58406 0.444066 1.54947 0.447481 1.57017C0.450986 1.59142 0.456301 1.63854 0.459704 1.73068C0.463054 1.82142 0.463883 1.93254 0.463883 2.07912H2.46388C2.46388 1.80723 2.46346 1.50321 2.42081 1.24467C2.37253 0.951944 2.24863 0.572094 1.88952 0.283125C1.58532 0.0383392 1.22819 -0.0389358 1.00288 -0.0794926C0.762803 -0.122707 0.444977 -0.15676 0.121967 -0.196453L-0.121967 1.78862ZM0.463883 2.07912V10.1017H2.46388V2.07912H0.463883ZM0.463883 10.1017C0.463883 10.2476 0.463054 10.3583 0.459708 10.4486C0.45631 10.5404 0.451006 10.5873 0.447517 10.6084C0.444124 10.6289 0.447139 10.5946 0.475774 10.5361C0.50911 10.4681 0.562681 10.3967 0.634211 10.3389C0.698898 10.2867 0.749643 10.2688 0.751228 10.2682C0.752441 10.2678 0.745423 10.2703 0.726995 10.2749C0.708645 10.2794 0.682733 10.285 0.646846 10.2916C0.480807 10.3217 0.261557 10.345 -0.121967 10.3922L0.121967 12.3772C0.445987 12.3374 0.763493 12.3031 1.0046 12.2593C1.23098 12.2181 1.58746 12.1399 1.89099 11.8947C2.24862 11.6058 2.37244 11.227 2.42078 10.9343C2.46346 10.6759 2.46388 10.3725 2.46388 10.1017H0.463883ZM-1 11.3847V11.7983H1V11.3847H-1ZM0 12.7983H4.57707V10.7983H0V12.7983ZM5.57707 11.7983V11.3847H3.57707V11.7983H5.57707ZM4.69904 10.3922C4.31552 10.345 4.09627 10.3217 3.93023 10.2916C3.89434 10.285 3.86843 10.2794 3.85008 10.2749C3.83165 10.2703 3.82463 10.2678 3.82585 10.2682C3.82743 10.2688 3.87818 10.2867 3.94286 10.3389C4.01439 10.3967 4.06796 10.4681 4.1013 10.5361C4.12994 10.5946 4.13295 10.6289 4.12956 10.6084C4.12607 10.5873 4.12076 10.5404 4.11737 10.4486C4.11402 10.3583 4.11319 10.2476 4.11319 10.1017H2.11319C2.11319 10.3725 2.11361 10.6759 2.1563 10.9343C2.20464 11.227 2.32846 11.6058 2.68609 11.8947C2.98962 12.1399 3.34609 12.2181 3.57248 12.2593C3.81358 12.3031 4.13109 12.3374 4.45511 12.3772L4.69904 10.3922ZM4.11319 10.1017V0.890077H2.11319V10.1017H4.11319ZM48.9916 0.3825V0.796081H50.9916V0.3825H48.9916ZM49.9916 1.79608C50.1573 1.79608 50.2081 1.82877 50.2586 1.86793C50.3593 1.94598 50.4919 2.09963 50.7395 2.46558L52.396 1.34488C52.1507 0.982364 51.8636 0.581443 51.4837 0.287034C51.0536 -0.0462691 50.5627 -0.203919 49.9916 -0.203919V1.79608ZM50.7369 2.46183L53.3378 6.34385L54.9993 5.23065L52.3985 1.34863L50.7369 2.46183ZM53.3611 5.19727L50.1845 9.54457L51.7993 10.7245L54.976 6.37724L53.3611 5.19727ZM50.1796 9.55138C49.8886 9.95674 49.7108 10.1551 49.5636 10.264C49.4603 10.3403 49.3587 10.3847 49.1523 10.3847V12.3847C49.7657 12.3847 50.2886 12.2152 50.7527 11.8721C51.1727 11.5615 51.5048 11.1348 51.8043 10.7177L50.1796 9.55138ZM48.1523 11.3847V11.7983H50.1523V11.3847H48.1523ZM49.1523 12.7983H52.49V10.7983H49.1523V12.7983ZM53.49 11.7983V11.3847H51.49V11.7983H53.49ZM52.49 10.3847C52.4242 10.3847 52.459 10.3666 52.538 10.4248C52.5826 10.4576 52.6334 10.5104 52.671 10.5843C52.709 10.6589 52.719 10.7265 52.719 10.769H50.719C50.719 11.295 50.9597 11.7465 51.3525 12.0356C51.7109 12.2994 52.1312 12.3847 52.49 12.3847V10.3847ZM52.719 10.769C52.719 10.8075 52.7097 10.8069 52.7316 10.7543C52.7543 10.6994 52.8034 10.6063 52.9031 10.4694L51.2863 9.29214C50.9713 9.72477 50.719 10.2206 50.719 10.769H52.719ZM52.9038 10.4685L55.4266 6.99531L53.8084 5.81993L51.2856 9.29307L52.9038 10.4685ZM53.811 6.99888L56.4606 10.613L58.0736 9.4305L55.424 5.81637L53.811 6.99888ZM56.4485 10.5961C56.5396 10.726 56.5866 10.8171 56.6083 10.8694C56.6324 10.9274 56.6136 10.9086 56.6136 10.8301H58.6136C58.6136 10.3311 58.3676 9.84922 58.0857 9.44746L56.4485 10.5961ZM56.6136 10.8301C56.6136 10.7486 56.6395 10.6323 56.7173 10.5231C56.788 10.4238 56.8648 10.3817 56.8888 10.3703C56.9108 10.3598 56.9067 10.3659 56.8619 10.3732C56.82 10.38 56.7624 10.3847 56.6913 10.3847V12.3847C56.9679 12.3847 57.3748 12.3542 57.7491 12.1758C57.9481 12.081 58.1722 11.9279 58.3465 11.6832C58.5278 11.4286 58.6136 11.1325 58.6136 10.8301H56.6136ZM55.6913 11.3847V11.7983H57.6913V11.3847H55.6913ZM56.6913 12.7983H61V10.7983H56.6913V12.7983ZM62 11.7983V11.3847H60V11.7983H62ZM61 10.3847C60.6422 10.3847 60.6103 10.3362 60.5796 10.3124C60.5295 10.2734 60.4495 10.1966 60.3153 10.0299C60.1808 9.8629 60.0236 9.64642 59.8067 9.34444L58.1822 10.5111C58.5743 11.0569 58.934 11.5666 59.3526 11.8918C59.877 12.2992 60.4209 12.3847 61 12.3847V10.3847ZM59.8044 9.34119L56.4619 4.72601L54.8421 5.89914L58.1846 10.5143L59.8044 9.34119ZM56.4488 5.91676L59.2497 2.22273L57.656 1.01436L54.8551 4.70839L56.4488 5.91676ZM59.2487 2.22398C59.4471 1.9632 59.8067 1.79608 60.0143 1.79608V-0.203919C59.0996 -0.203919 58.1808 0.324534 57.657 1.0131L59.2487 2.22398ZM61.0143 0.796081V0.3825H59.0143V0.796081H61.0143ZM60.0143 -0.6175H56.8035V1.3825H60.0143V-0.6175ZM55.8035 0.3825V0.796081H57.8035V0.3825H55.8035ZM56.8035 1.79608C56.8389 1.79608 56.8654 1.79973 56.8801 1.80293C56.8964 1.80652 56.8833 1.80619 56.8513 1.78795C56.8182 1.76908 56.75 1.7219 56.6892 1.629C56.6236 1.52859 56.594 1.416 56.594 1.31776H58.594C58.594 0.697229 58.2283 0.271042 57.8427 0.0509546C57.4952 -0.147359 57.1094 -0.203919 56.8035 -0.203919V1.79608ZM56.594 1.31776C56.594 1.29074 56.5968 1.26677 56.6007 1.24713C56.6046 1.22783 56.6089 1.21617 56.6101 1.213C56.6113 1.21012 56.6091 1.21618 56.6001 1.23167C56.5911 1.24725 56.5758 1.2711 56.5513 1.30357L58.1488 2.50689C58.41 2.16015 58.594 1.76514 58.594 1.31776H56.594ZM56.557 1.29613L54.366 4.1489L55.9522 5.3671L58.1431 2.51433L56.557 1.29613ZM55.9943 4.20808L54.2181 1.51041L52.5477 2.61024L54.3239 5.30792L55.9943 4.20808ZM54.1985 1.48168C54.1418 1.4017 54.1135 1.3422 54.1012 1.30986C54.0952 1.294 54.0943 1.28812 54.0952 1.29248C54.096 1.29612 54.0999 1.31614 54.0999 1.35066H52.0999C52.0999 1.80158 52.2952 2.25535 52.5673 2.63896L54.1985 1.48168ZM54.0999 1.35066C54.0999 1.42271 54.0792 1.52693 54.0132 1.62975C53.9509 1.72677 53.8782 1.77622 53.8421 1.79591C53.8091 1.81394 53.7991 1.81181 53.8279 1.80623C53.8545 1.80106 53.8983 1.79608 53.9587 1.79608V-0.203919C53.6582 -0.203919 53.2518 -0.16054 52.8835 0.040637C52.4527 0.275925 52.0999 0.725091 52.0999 1.35066H54.0999ZM54.9587 0.796081V0.3825H52.9587V0.796081H54.9587ZM53.9587 -0.6175H49.9916V1.3825H53.9587V-0.6175ZM39.6297 7.74624L41.6547 2.43548L39.786 1.72291L37.7609 7.03366L39.6297 7.74624ZM40.7204 3.07919H40.7496V1.07919H40.7204V3.07919ZM39.8023 2.3995L41.598 7.71026L43.4926 7.06964L41.6969 1.75888L39.8023 2.3995ZM42.5453 6.38995H38.6953V8.38995H42.5453V6.38995ZM39.838 -0.18881C39.1343 1.60839 38.2729 3.87911 37.5182 5.81824C36.7455 7.80361 36.0887 9.42985 35.7492 10.0816L37.523 11.0054C37.9253 10.2331 38.6274 8.48257 39.382 6.54362C40.1547 4.55843 40.9889 2.35731 41.7003 0.540373L39.838 -0.18881ZM35.7373 10.1053C35.6287 10.3279 35.4695 10.3707 35.4162 10.3707V12.3707C36.2901 12.3707 37.1165 11.8401 37.535 10.9817L35.7373 10.1053ZM34.4162 11.3707V11.7983H36.4162V11.3707H34.4162ZM35.4162 12.7983H38.5099V10.7983H35.4162V12.7983ZM39.5099 11.7983V11.3707H37.5099V11.7983H39.5099ZM38.5099 10.3707C38.3979 10.3707 38.4356 10.3414 38.5093 10.4107C38.5428 10.4421 38.5664 10.4793 38.58 10.5133C38.5928 10.5456 38.5925 10.5646 38.5925 10.5623H36.5925C36.5925 11.0242 36.7544 11.5059 37.1393 11.8678C37.5204 12.226 38.0168 12.3707 38.5099 12.3707V10.3707ZM38.5925 10.5623C38.5925 10.5718 38.5923 10.5775 38.5922 10.5787C38.5922 10.5803 38.5921 10.5799 38.5923 10.5776C38.5927 10.5727 38.5936 10.5642 38.5951 10.5539C38.5967 10.5436 38.5984 10.5343 38.6001 10.5272C38.6018 10.5196 38.6025 10.5184 38.601 10.5228L36.711 9.86867C36.6177 10.1382 36.5925 10.4129 36.5925 10.5623H38.5925ZM38.5963 10.5359L39.3868 8.35047L37.5061 7.67017L36.7156 9.85557L38.5963 10.5359ZM38.4465 9.01032H42.76V7.01032H38.4465V9.01032ZM41.8141 8.33476L42.5363 10.4403L44.4281 9.79138L43.7059 7.68588L41.8141 8.33476ZM42.5372 10.4429C42.5757 10.5541 42.5954 10.6196 42.6062 10.665C42.6157 10.705 42.614 10.7126 42.614 10.7033H44.614C44.614 10.3462 44.5115 10.0324 44.4272 9.78877L42.5372 10.4429ZM42.614 10.7033C42.614 10.6849 42.6174 10.6273 42.652 10.5528C42.6889 10.4734 42.7438 10.4127 42.7957 10.3751C42.8418 10.3417 42.8639 10.342 42.83 10.3503C42.7954 10.3587 42.7214 10.3707 42.5941 10.3707V12.3707C43.059 12.3707 43.5609 12.2903 43.9687 11.995C44.434 11.658 44.614 11.1638 44.614 10.7033H42.614ZM41.5941 11.3707V11.7983H43.5941V11.3707H41.5941ZM42.5941 12.7983H46.5466V10.7983H42.5941V12.7983ZM47.5466 11.7983V11.3707H45.5466V11.7983H47.5466ZM46.5466 10.3707C46.4895 10.3707 46.4859 10.3613 46.5053 10.3705C46.524 10.3794 46.5183 10.3839 46.4876 10.3475C46.4518 10.3052 46.3988 10.2272 46.3264 10.0853C46.2542 9.94397 46.1779 9.76955 46.0843 9.54429L44.2373 10.3114C44.4183 10.7474 44.6358 11.2547 44.96 11.6383C45.3501 12.1001 45.8768 12.3707 46.5466 12.3707V10.3707ZM46.0896 9.55719C45.5242 8.14042 43.8108 3.15249 42.6496 -0.155448L40.7625 0.507011C41.9044 3.75997 43.6458 8.82958 44.232 10.2985L46.0896 9.55719ZM41.706 -0.824219H40.7692V1.17578H41.706V-0.824219ZM23.2029 0.3825V0.796081H25.2029V0.3825H23.2029ZM24.0809 1.78862C24.4654 1.83587 24.6844 1.8588 24.8514 1.88887C24.8875 1.89536 24.9135 1.90094 24.9319 1.90545C24.9505 1.90998 24.9575 1.91251 24.9563 1.91209C24.9548 1.91156 24.9037 1.89374 24.8385 1.84129C24.7664 1.78323 24.7124 1.71139 24.6788 1.64286C24.6499 1.58406 24.6469 1.54947 24.6503 1.57017C24.6538 1.59142 24.6592 1.63854 24.6626 1.73068C24.6659 1.82142 24.6667 1.93254 24.6667 2.07912H26.6667C26.6667 1.80723 26.6663 1.50321 26.6237 1.24467C26.5754 0.951944 26.4515 0.572094 26.0924 0.283125C25.7882 0.0383392 25.4311 -0.0389358 25.2057 -0.0794926C24.9657 -0.122707 24.6478 -0.15676 24.3248 -0.196453L24.0809 1.78862ZM24.6667 2.07912V10.1017H26.6667V2.07912H24.6667ZM24.6667 10.1017C24.6667 10.2476 24.6659 10.3583 24.6626 10.4486C24.6592 10.5404 24.6539 10.5873 24.6504 10.6084C24.647 10.6289 24.65 10.5946 24.6786 10.5361C24.712 10.4681 24.7655 10.3967 24.8371 10.3389C24.9018 10.2867 24.9525 10.2688 24.9541 10.2682C24.9553 10.2678 24.9483 10.2703 24.9299 10.2749C24.9115 10.2794 24.8856 10.285 24.8497 10.2916C24.6837 10.3217 24.4644 10.345 24.0809 10.3922L24.3248 12.3772C24.6488 12.3374 24.9664 12.3031 25.2075 12.2593C25.4338 12.2181 25.7903 12.1399 26.0938 11.8947C26.4515 11.6058 26.5753 11.227 26.6236 10.9343C26.6663 10.6759 26.6667 10.3725 26.6667 10.1017H24.6667ZM23.2029 11.3847V11.7983H25.2029V11.3847H23.2029ZM24.2029 12.7983H32.5324V10.7983H24.2029V12.7983ZM33.5174 11.9704L34.0298 9.03771L32.0596 8.69351L31.5473 11.6262L33.5174 11.9704ZM33.0447 7.86561H32.6153V9.86561H33.0447V7.86561ZM31.7007 8.46121C31.5982 8.69305 31.5108 8.90569 31.4347 9.09169C31.3566 9.28267 31.2941 9.43595 31.2329 9.57337C31.1083 9.85336 31.0294 9.96963 30.9669 10.0338C30.8957 10.1067 30.6861 10.2907 29.4875 10.2907V12.2907C30.7433 12.2907 31.7121 12.134 32.3985 11.4303C32.7148 11.1061 32.9095 10.725 33.06 10.3869C33.1365 10.2152 33.2121 10.0292 33.2857 9.84915C33.3614 9.66415 33.4397 9.47408 33.5299 9.27001L31.7007 8.46121ZM29.4875 10.2907C29.1155 10.2907 28.8357 10.2825 28.6178 10.2588C28.3945 10.2347 28.3028 10.2004 28.2768 10.1876C28.2696 10.1841 28.2816 10.189 28.3003 10.2072C28.32 10.2262 28.3328 10.246 28.3388 10.2582C28.3469 10.2745 28.3161 10.2225 28.3161 10.0218H26.3161C26.3161 10.392 26.3676 10.7842 26.5464 11.1455C26.7383 11.533 27.0374 11.8064 27.3922 11.9813C27.72 12.1431 28.0766 12.2119 28.4023 12.2472C28.7333 12.2831 29.1031 12.2907 29.4875 12.2907V10.2907ZM28.3161 10.0218V2.07912H26.3161V10.0218H28.3161ZM28.3161 2.07912C28.3161 1.93254 28.3169 1.82142 28.3202 1.73068C28.3236 1.63854 28.329 1.59142 28.3325 1.57017C28.3359 1.54947 28.3329 1.58406 28.304 1.64286C28.2704 1.71139 28.2164 1.78323 28.1443 1.84129C28.0791 1.89374 28.028 1.91156 28.0265 1.91209C28.0253 1.91251 28.0323 1.90998 28.0509 1.90545C28.0693 1.90094 28.0953 1.89536 28.1314 1.88887C28.2984 1.8588 28.5174 1.83587 28.9019 1.78862L28.658 -0.196453C28.335 -0.15676 28.0171 -0.122707 27.7771 -0.0794926C27.5517 -0.0389358 27.1946 0.0383392 26.8904 0.283125C26.5313 0.572094 26.4074 0.951944 26.3591 1.24467C26.3165 1.50321 26.3161 1.80723 26.3161 2.07912H28.3161ZM29.7799 0.796081V0.3825H27.7799V0.796081H29.7799ZM28.7799 -0.6175H24.2029V1.3825H28.7799V-0.6175ZM14.5485 7.74624L16.5735 2.43548L14.7048 1.72291L12.6797 7.03366L14.5485 7.74624ZM15.6392 3.07919H15.6733V1.07919H15.6392V3.07919ZM14.726 2.3995L16.5217 7.71026L18.4163 7.06964L16.6206 1.75888L14.726 2.3995ZM17.469 6.38995H13.6141V8.38995H17.469V6.38995ZM14.7568 -0.18881C14.0518 1.61168 13.1939 3.87662 12.4392 5.81874C11.6677 7.80439 11.0122 9.43018 10.6729 10.0816L12.4467 11.0054C12.8491 10.2328 13.5501 8.48179 14.3035 6.54312C15.0737 4.56092 15.909 2.35402 16.6191 0.540373L14.7568 -0.18881ZM10.6609 10.1053C10.5524 10.3279 10.3931 10.3707 10.3399 10.3707V12.3707C11.2138 12.3707 12.0402 11.8401 12.4587 10.9817L10.6609 10.1053ZM9.33989 11.3707V11.7983H11.3399V11.3707H9.33989ZM10.3399 12.7983H13.4336V10.7983H10.3399V12.7983ZM14.4336 11.7983V11.3707H12.4336V11.7983H14.4336ZM13.4336 10.3707C13.3171 10.3707 13.3535 10.3402 13.4273 10.4093C13.4609 10.4408 13.4848 10.4782 13.4986 10.5127C13.5116 10.5454 13.5113 10.5646 13.5113 10.5623H11.5113C11.5113 11.0243 11.6734 11.5069 12.0602 11.8691C12.4426 12.2272 12.9401 12.3707 13.4336 12.3707V10.3707ZM13.5113 10.5623C13.5113 10.5775 13.5108 10.5875 13.5106 10.5908C13.5104 10.5948 13.5102 10.5961 13.5104 10.5947C13.5107 10.5915 13.5116 10.5833 13.5135 10.5718C13.5154 10.5604 13.5177 10.5491 13.5202 10.5389C13.5214 10.534 13.5225 10.5301 13.5233 10.5271C13.5242 10.5241 13.5247 10.5227 13.5246 10.5228L11.6346 9.86867C11.5489 10.1165 11.5113 10.3869 11.5113 10.5623H13.5113ZM13.52 10.5359L14.3105 8.35047L12.4298 7.67017L11.6393 9.85557L13.52 10.5359ZM13.3701 9.01032H17.6837V7.01032H13.3701V9.01032ZM16.7378 8.33476L17.46 10.4403L19.3518 9.79138L18.6296 7.68588L16.7378 8.33476ZM17.4609 10.4429C17.4994 10.5541 17.5191 10.6196 17.5299 10.665C17.5394 10.705 17.5376 10.7126 17.5376 10.7033H19.5376C19.5376 10.3462 19.4352 10.0324 19.3509 9.78877L17.4609 10.4429ZM17.5376 10.7033C17.5376 10.6849 17.5411 10.6273 17.5757 10.5528C17.6126 10.4734 17.6675 10.4127 17.7193 10.3751C17.7655 10.3417 17.7876 10.342 17.7536 10.3503C17.7191 10.3587 17.6451 10.3707 17.5178 10.3707V12.3707C17.9826 12.3707 18.4846 12.2903 18.8924 11.995C19.3577 11.658 19.5376 11.1638 19.5376 10.7033H17.5376ZM16.5178 11.3707V11.7983H18.5178V11.3707H16.5178ZM17.5178 12.7983H21.4703V10.7983H17.5178V12.7983ZM22.4703 11.7983V11.3707H20.4703V11.7983H22.4703ZM21.4703 10.3707C21.4131 10.3707 21.4096 10.3613 21.429 10.3705C21.4476 10.3794 21.442 10.3839 21.4113 10.3475C21.3755 10.3052 21.3225 10.2272 21.25 10.0853C21.1779 9.94397 21.1016 9.76955 21.008 9.54429L19.161 10.3114C19.342 10.7474 19.5595 11.2547 19.8836 11.6383C20.2738 12.1001 20.8005 12.3707 21.4703 12.3707V10.3707ZM21.0133 9.55719C20.4479 8.14042 18.7345 3.15249 17.5733 -0.155448L15.6862 0.507011C16.8281 3.75997 18.5695 8.82958 19.1557 10.2985L21.0133 9.55719ZM16.6297 -0.824219H15.6879V1.17578H16.6297V-0.824219Z" fill="white" mask="url(#path-1-inside-1_210_74)"/>
</svg>
